# xmcd CD database file
#
# Track frame offsets:
#	150
#	11557
#	24060
#	36070
#	49430
#	59475
#	71807
#	85520
#	97530
#	111020
#	124847
#	136235
#	147957
#	159520
#	171077
#	182552
#	193457
#	204360
#	214717
#	226557
#	239887
#	252542
#	265572
#	278422
#	289097
#
# Disc length: 4015 seconds
#
# Revision: 0
# Processed by: cddbd v1.5.1PL2 Copyright (c) Steve Scherf et al.
# Submitted via: CDex 1.51
#
DISCID=5c0fad19
DTITLE=Various Artist - Greetings from Oklahoma
DYEAR=2004
DGENRE=Country
TTITLE0=Oklahoma's OK - Bobby Barnett
TTITLE1=Oklahoma Hills - Jack Guthrie
TTITLE2=Take Me Back to Tulsa - Bob Wills
TTITLE3=The Everlasting Hills of Oklahoma - Sons of the Pioneers
TTITLE4=Okie Boogie - Ella Mae Morse
TTITLE5=Oklahoma Hills - Hank Thompson
TTITLE6=Oklahoma's Calling - Jack Guthrie
TTITLE7=Oklahoma Waltz - Johnny Bond
TTITLE8=Moffet, Oklahoma - Charlie Walker
TTITLE9=Good Old Oklahoma - Bob Wills
TTITLE10=Oklahoma Honky Tonky Girl - Sheb Wooley
TTITLE11=Oklahoma Boogie - Louie Bashell
TTITLE12=(Gotta Get To) Oklahoma City - Luke Wills
TTITLE13=All Aboard for Oklahoma - Spade Cooley
TTITLE14=Oklahoma Bound - Paul Westmoreland
TTITLE15=Okie Boogie - Jack Guthrie
TTITLE16=My Oklahoma Rose - Wilf Carter
TTITLE17=Henryetta, Oklahoma - Marvin Rainwater
TTITLE18=Oklahoma Blues - Luke Wills
TTITLE19=Tulsa Straight Ahead - Leon McAuliffe
TTITLE20=She's an Okie - Al Vaughn
TTITLE21=Ramblin' Okie - Terry Fell
TTITLE22=Oklahoma Hills - Marvin Rainwater
TTITLE23=For Oklahoma I'm Yearning - Jack Guthrie
TTITLE24=Okie from Muskogee - Merle Haggard
EXTD=YEAR: 2004
EXTT0=
EXTT1=
EXTT2=
EXTT3=
EXTT4=
EXTT5=
EXTT6=
EXTT7=
EXTT8=
EXTT9=
EXTT10=
EXTT11=
EXTT12=
EXTT13=
EXTT14=
EXTT15=
EXTT16=
EXTT17=
EXTT18=
EXTT19=
EXTT20=
EXTT21=
EXTT22=
EXTT23=
EXTT24=
PLAYORDER=
